<?xml version="1.0" encoding="iso-8859-1"?>
<!-- Generator: Adobe Illustrator 19.0.0, SVG Export Plug-In . SVG Version: 6.00 Build 0)  -->
<svg version="1.1" id="Capa_1" xmlns="http://www.w3.org/2000/svg" xmlns:xlink="http://www.w3.org/1999/xlink" x="0px" y="0px"
	 viewBox="0 0 511.999 511.999" style="enable-background:new 0 0 511.999 511.999;" xml:space="preserve">
<g>
	<g>
		<path d="M395.273,265.367c-5.169-5.17-12.042-8.017-19.353-8.017c-7.311,0-14.184,2.847-19.352,8.016
			c-5.169,5.17-8.017,12.043-8.017,19.353s2.847,14.183,8.017,19.353c5.335,5.335,12.344,8.003,19.352,8.003
			c7.009,0,14.017-2.668,19.352-8.003c5.169-5.17,8.017-12.043,8.017-19.353S400.442,270.536,395.273,265.367z M384.968,293.766
			c-4.99,4.991-13.107,4.991-18.096,0c-2.417-2.417-3.748-5.63-3.748-9.047s1.331-6.631,3.749-9.048
			c2.417-2.417,5.63-3.748,9.047-3.748s6.631,1.331,9.048,3.749c2.417,2.417,3.748,5.63,3.748,9.047S387.385,291.35,384.968,293.766
			z"/>
	</g>
</g>
<g>
	<g>
		<path d="M395.272,337.29c-10.671-10.671-28.034-10.672-38.705,0c-5.169,5.17-8.017,12.043-8.017,19.353
			c0.001,7.31,2.848,14.184,8.018,19.354c5.335,5.335,12.344,8.003,19.352,8.003c7.009,0,14.017-2.668,19.352-8.003v-0.001
			c5.169-5.169,8.017-12.043,8.017-19.353S400.442,342.46,395.272,337.29z M384.968,365.691c-4.988,4.991-13.106,4.989-18.095,0.001
			c-2.417-2.417-3.749-5.631-3.749-9.049c0-3.417,1.331-6.631,3.748-9.047c2.495-2.495,5.771-3.742,9.048-3.742
			c3.277,0,6.554,1.247,9.048,3.742c2.417,2.417,3.748,5.63,3.748,9.047C388.716,360.061,387.385,363.275,384.968,365.691z"/>
	</g>
</g>
<g>
	<g>
		<path d="M484.582,145.753c-15.118,0-27.418,12.3-27.418,27.417v34.816h-14.656c-0.975-17.309-8.765-33.656-21.72-45.311
			c-13.706-12.333-32.024-18.355-50.362-16.604v-8.702h0.234c8.108,0,14.705-6.597,14.705-14.705v-50.48
			c0-8.108-6.597-14.704-14.705-14.704h-15.04c-8.108,0-14.705,6.596-14.705,14.704v50.481c0,8.108,6.597,14.705,14.705,14.705
			h0.233v10.021l-23.607,2.15c-4.008,0.364-6.961,3.909-6.596,7.917s3.903,6.969,7.917,6.596l30.3-2.759
			c0.01-0.001,0.019-0.002,0.029-0.003l7.29-0.664c0.036-0.003,0.071-0.007,0.106-0.01c14.452-1.528,28.943,3.168,39.749,12.891
			c10.806,9.722,17.003,23.635,17.003,38.171v190.959H320.012l12.997-73.023c2.776-15.32-0.987-31.253-10.323-43.713
			c-9.336-12.459-23.57-20.546-39.053-22.184c-0.05-0.006-0.101-0.01-0.151-0.014L92.213,247.472l3.211-61.732l193.06-17.581
			c4.008-0.364,6.961-3.909,6.596-7.917c-0.365-4.009-3.911-6.98-7.917-6.596l-190.974,17.39l0.072-1.393
			c0.214-4.121-1.292-8.202-4.134-11.194c-2.841-2.993-6.838-4.71-10.964-4.71h-0.074v-4.921c0-9.684-7.879-17.563-17.563-17.563
			c-9.685,0-17.564,7.879-17.564,17.563v4.921h-1.95c-4.127,0-8.123,1.716-10.964,4.71c-2.842,2.992-4.348,7.073-4.134,11.194
			l2.94,56.54c0.209,4.019,3.631,7.086,7.655,6.898c4.019-0.21,7.107-3.637,6.898-7.656l-2.94-56.54
			c-0.003-0.058-0.012-0.234,0.149-0.404c0.161-0.17,0.337-0.17,0.395-0.17h9.236H73.8h7.361c0.058,0,0.234,0,0.396,0.17
			c0.161,0.171,0.152,0.346,0.149,0.404l-5.923,113.892c-0.015,0.29-0.254,0.518-0.545,0.518H49.935c-0.29,0-0.53-0.228-0.545-0.518
			l-0.613-11.799c-0.209-4.019-3.649-7.098-7.655-6.898c-4.019,0.21-7.108,3.637-6.898,7.656l0.613,11.799
			c0.246,4.743,2.666,8.866,6.254,11.46v17.647c0,9.296,5.933,17.231,14.21,20.223v38.054c0,4.025,3.262,7.287,7.287,7.287
			s7.287-3.262,7.287-7.287v-38.053c8.277-2.992,14.21-10.926,14.21-20.223v-17.647c3.588-2.594,6.007-6.718,6.253-11.46
			l1.118-21.503l190.716,16.185c11.606,1.248,21.85,7.078,28.852,16.423c7.017,9.364,9.732,20.862,7.642,32.398l-13.455,75.599
			H22.66C10.165,402.639,0,412.803,0,425.298v6.563c0,12.494,10.165,22.659,22.66,22.659h439.303
			c12.495,0,22.66-10.165,22.66-22.659v-6.563c0-12.494-10.165-22.659-22.66-22.659h-19.346V249.854h14.546v34.816
			c0,15.119,12.3,27.418,27.418,27.418c15.119,0,27.418-12.3,27.418-27.418V173.171C512,158.053,499.7,145.753,484.582,145.753z
			 M355.62,122.797c-0.073,0-0.132-0.059-0.132-0.132V72.184c0-0.072,0.059-0.131,0.132-0.131h15.04
			c0.073,0,0.132,0.059,0.132,0.131v50.481c0,0.073-0.059,0.132-0.132,0.132H355.62z M66.516,153.74L66.516,153.74h-5.981v-4.921
			c0-1.648,1.342-2.99,2.991-2.99c1.648,0,2.99,1.342,2.99,2.99V153.74z M69.511,312.643c0,3.818-3.106,6.923-6.924,6.923
			c-3.817,0-6.923-3.105-6.923-6.923V297.87h13.847V312.643z M461.963,417.212c4.459,0,8.087,3.627,8.087,8.086v6.563
			c0,4.459-3.628,8.086-8.087,8.086H22.66c-4.459,0-8.087-3.627-8.087-8.086v-6.563c0-4.459,3.628-8.086,8.087-8.086H461.963z
			 M457.164,235.281h-14.546V222.56h14.546V235.281z M497.427,284.67c0,7.083-5.762,12.845-12.845,12.845
			s-12.845-5.763-12.845-12.845V173.171c0-7.083,5.762-12.844,12.845-12.844s12.845,5.762,12.845,12.844V284.67z"/>
	</g>
</g>
<g>
</g>
<g>
</g>
<g>
</g>
<g>
</g>
<g>
</g>
<g>
</g>
<g>
</g>
<g>
</g>
<g>
</g>
<g>
</g>
<g>
</g>
<g>
</g>
<g>
</g>
<g>
</g>
<g>
</g>
</svg>
